<svg width="350" height="350" viewBox="0 0 350 350" fill="none" xmlns="http://www.w3.org/2000/svg">
<g clip-path="url(#clip0_2_32)">
<path d="M350 175C350.031 198.69 345.236 222.137 335.907 243.913L335.327 245.249C319.546 281.149 292.183 310.721 257.613 329.235C223.042 347.749 183.262 354.136 144.634 347.375C143.583 347.189 142.534 346.995 141.486 346.795C130.661 344.697 120.062 341.571 109.831 337.46C108.169 336.792 106.519 336.1 104.881 335.384C103.763 334.897 102.644 334.395 101.536 333.877C71.2267 319.83 45.5648 297.41 27.5751 269.261C9.58539 241.112 0.0177933 208.407 0 175C0 78.3513 78.3513 0 175 0C271.649 0 350 78.3513 350 175Z" fill="#3F6EFF"/>
<path opacity="0.2" d="M144.634 347.375C143.583 347.189 142.534 346.995 141.486 346.795C140.803 326.96 138.457 286.249 130.458 243.612C126.083 220.277 120.01 196.357 111.586 174.974C108.7 167.575 105.404 160.343 101.712 153.311C93.2004 137.235 82.8765 123.701 70.3572 114.532L72.2004 112.016C82.6124 119.647 91.9699 130.361 100.273 144.158C102.763 148.289 105.155 152.697 107.449 157.381C109.908 162.393 112.254 167.714 114.485 173.343C115.909 176.926 117.285 180.633 118.612 184.465C124.39 201.1 129.302 220.081 133.347 241.407C134.243 246.118 135.095 250.946 135.905 255.888C142.175 294.186 144.064 329.595 144.634 347.375Z" fill="black"/>
<path opacity="0.2" d="M104.881 335.384C103.763 334.897 102.644 334.395 101.536 333.877C100.454 322.124 98.466 307.544 94.8314 293.705C93.2395 287.489 91.1958 281.398 88.7167 275.48C84.5695 265.772 79.2004 257.519 72.2574 252.43L74.1006 249.919C81.3698 255.241 86.9771 263.655 91.3106 273.497C96.193 284.587 99.4497 297.495 101.619 309.828C103.229 318.987 104.244 327.835 104.881 335.384Z" fill="black"/>
<path opacity="0.2" d="M52.9462 114.459C61.5499 114.459 68.5246 107.485 68.5246 98.881C68.5246 90.2773 61.5499 83.3026 52.9462 83.3026C44.3425 83.3026 37.3678 90.2773 37.3678 98.881C37.3678 107.485 44.3425 114.459 52.9462 114.459Z" fill="black"/>
<path opacity="0.2" d="M57.963 248.562C66.5667 248.562 73.5414 241.587 73.5414 232.983C73.5414 224.38 66.5667 217.405 57.963 217.405C49.3593 217.405 42.3846 224.38 42.3846 232.983C42.3846 241.587 49.3593 248.562 57.963 248.562Z" fill="black"/>
<path opacity="0.2" d="M114.793 125.048C111.489 143.686 118.782 160.562 118.782 160.562C118.782 160.562 131.431 147.22 134.734 128.583C138.038 109.945 130.745 93.0688 130.745 93.0688C130.745 93.0688 118.096 106.41 114.793 125.048Z" fill="black"/>
<path opacity="0.2" d="M63.0195 169.29C80.7965 175.79 98.6598 171.619 98.6598 171.619C98.6598 171.619 87.7011 156.908 69.9241 150.408C52.1471 143.907 34.2838 148.079 34.2838 148.079C34.2838 148.079 45.2425 162.789 63.0195 169.29Z" fill="black"/>
<path opacity="0.2" d="M60.005 288.042C72.4652 292.598 85.0037 289.626 85.0037 289.626C85.0037 289.626 77.3401 279.267 64.8799 274.711C52.4197 270.154 39.8812 273.127 39.8812 273.127C39.8812 273.127 47.5448 283.486 60.005 288.042Z" fill="black"/>
<path d="M174.641 213.753C212.32 213.753 242.865 183.208 242.865 145.529C242.865 107.85 212.32 77.3048 174.641 77.3048C136.962 77.3048 106.417 107.85 106.417 145.529C106.417 183.208 136.962 213.753 174.641 213.753Z" fill="#D0CDE1"/>
<path d="M147.991 197.763C147.991 197.763 156.519 238.271 156.519 242.535C156.519 246.799 197.027 265.987 197.027 265.987L233.271 259.591L246.063 221.215C246.063 221.215 224.743 189.235 224.743 176.443L147.991 197.763Z" fill="#D0CDE1"/>
<path d="M335.907 243.913L335.327 245.249C319.546 281.149 292.183 310.721 257.613 329.235C223.042 347.749 183.262 354.136 144.634 347.375C143.583 347.189 142.534 346.995 141.486 346.795C130.661 344.697 120.062 341.571 109.831 337.46C108.169 336.792 106.519 336.1 104.881 335.384C103.763 334.897 102.644 334.395 101.536 333.877C91.4933 329.224 81.9151 323.628 72.9305 317.164L64.8432 293.705L69.3891 290.236L78.7396 283.096L88.7167 275.48L91.3107 273.497L130.458 243.612L133.347 241.407L153.695 225.874L153.7 225.869C153.7 225.869 175.704 261.723 207.686 251.063C239.667 240.402 238.968 209.834 238.968 209.834L335.907 243.913Z" fill="#2F2E41"/>
<path d="M115.477 90.563C115.477 90.563 137.138 43.631 178.655 54.4615C220.171 65.2919 243.637 81.5376 245.442 97.7833C247.248 114.029 244.54 138.398 244.54 138.398C244.54 138.398 240.027 105.004 211.146 112.224C182.265 119.444 137.138 114.029 137.138 114.029L129.918 179.012C129.918 179.012 121.795 167.279 112.769 174.499C103.744 181.719 86.5957 105.004 115.477 90.563Z" fill="#2F2E41"/>
<path d="M109.831 337.46C108.169 336.792 106.519 336.1 104.881 335.384C103.763 334.897 102.644 334.395 101.536 333.877C84.9263 326.175 69.6245 315.92 56.1864 303.485C60.9445 297.003 64.8432 293.705 64.8432 293.705H96.8247L101.619 309.828L109.831 337.46Z" fill="#2F2E41"/>
<path d="M307.891 240.402L335.327 245.249C327.985 261.975 318.069 277.448 305.939 291.106L307.891 240.402Z" fill="#2F2E41"/>
</g>
<defs>
<clipPath id="clip0_2_32">
<rect width="350" height="350" fill="white"/>
</clipPath>
</defs>
</svg>
