<svg width="40" height="42" viewBox="0 0 40 42" fill="none" xmlns="http://www.w3.org/2000/svg">
<path d="M13.379 32.0484C13.379 32.2097 13.1935 32.3387 12.9597 32.3387C12.6935 32.3629 12.5081 32.2339 12.5081 32.0484C12.5081 31.8871 12.6935 31.758 12.9274 31.758C13.1694 31.7338 13.379 31.8629 13.379 32.0484ZM10.871 31.6855C10.8145 31.8468 10.9758 32.0322 11.2177 32.0806C11.4274 32.1613 11.6694 32.0806 11.7177 31.9193C11.7661 31.758 11.6129 31.5726 11.371 31.5C11.1613 31.4435 10.9274 31.5242 10.871 31.6855ZM14.4355 31.5484C14.2016 31.6048 14.0403 31.758 14.0645 31.9435C14.0887 32.1048 14.2984 32.2097 14.5403 32.1532C14.7742 32.0968 14.9355 31.9435 14.9113 31.7822C14.8871 31.629 14.6694 31.5242 14.4355 31.5484ZM19.7419 0.645142C8.55645 0.645142 0 9.13708 0 20.3226C0 29.2661 5.62903 36.9193 13.6694 39.6129C14.7016 39.7984 15.0645 39.1613 15.0645 38.6371C15.0645 38.1371 15.0403 35.379 15.0403 33.6855C15.0403 33.6855 9.39516 34.8951 8.20968 31.2822C8.20968 31.2822 7.29032 28.9355 5.96774 28.3306C5.96774 28.3306 4.12097 27.0645 6.09677 27.0887C6.09677 27.0887 8.10484 27.25 9.20968 29.1693C10.9758 32.2822 13.9355 31.3871 15.0887 30.8548C15.2742 29.5645 15.7984 28.6693 16.379 28.1371C11.871 27.6371 7.32258 26.9839 7.32258 19.2258C7.32258 17.008 7.93548 15.8951 9.22581 14.4758C9.01613 13.9516 8.33064 11.7903 9.43548 8.99998C11.121 8.47579 15 11.1774 15 11.1774C16.6129 10.7258 18.3468 10.4919 20.0645 10.4919C21.7823 10.4919 23.5161 10.7258 25.129 11.1774C25.129 11.1774 29.0081 8.46772 30.6935 8.99998C31.7984 11.7984 31.1129 13.9516 30.9032 14.4758C32.1936 15.9032 32.9839 17.0161 32.9839 19.2258C32.9839 27.008 28.2339 27.629 23.7258 28.1371C24.4677 28.7742 25.0968 29.9838 25.0968 31.879C25.0968 34.5968 25.0726 37.9597 25.0726 38.6209C25.0726 39.1451 25.4435 39.7822 26.4677 39.5968C34.5323 36.9193 40 29.2661 40 20.3226C40 9.13708 30.9274 0.645142 19.7419 0.645142ZM7.83871 28.4597C7.73387 28.5403 7.75806 28.7258 7.89516 28.879C8.02419 29.008 8.20968 29.0645 8.31452 28.9597C8.41935 28.879 8.39516 28.6935 8.25806 28.5403C8.12903 28.4113 7.94355 28.3548 7.83871 28.4597ZM6.96774 27.8064C6.91129 27.9113 6.99194 28.0403 7.15323 28.1209C7.28226 28.2016 7.44355 28.1774 7.5 28.0645C7.55645 27.9597 7.47581 27.8306 7.31452 27.75C7.15323 27.7016 7.02419 27.7258 6.96774 27.8064ZM9.58065 30.6774C9.45161 30.7822 9.5 31.0242 9.68548 31.1774C9.87097 31.3629 10.1048 31.3871 10.2097 31.258C10.3145 31.1532 10.2661 30.9113 10.1048 30.758C9.92742 30.5726 9.68548 30.5484 9.58065 30.6774ZM8.66129 29.4919C8.53226 29.5726 8.53226 29.7822 8.66129 29.9677C8.79032 30.1532 9.00806 30.2339 9.1129 30.1532C9.24193 30.0484 9.24193 29.8387 9.1129 29.6532C9 29.4677 8.79032 29.3871 8.66129 29.4919Z" fill="white"/>
</svg>
