<svg width="27" height="30" viewBox="0 0 27 30" fill="none" xmlns="http://www.w3.org/2000/svg">
<g clip-path="url(#clip0_11_101)">
<path d="M24.375 1.875H1.86914C0.837891 1.875 0 2.72461 0 3.76758V26.2324C0 27.2754 0.837891 28.125 1.86914 28.125H24.375C25.4062 28.125 26.25 27.2754 26.25 26.2324V3.76758C26.25 2.72461 25.4062 1.875 24.375 1.875ZM7.93359 24.375H4.04297V11.8477H7.93945V24.375H7.93359ZM5.98828 10.1367C4.74023 10.1367 3.73242 9.12305 3.73242 7.88086C3.73242 6.63867 4.74023 5.625 5.98828 5.625C7.23047 5.625 8.24414 6.63867 8.24414 7.88086C8.24414 9.12891 7.23633 10.1367 5.98828 10.1367ZM22.5176 24.375H18.627V18.2812C18.627 16.8281 18.5977 14.959 16.6055 14.959C14.5781 14.959 14.2676 16.541 14.2676 18.1758V24.375H10.377V11.8477H14.1094V13.5586H14.1621C14.6836 12.5742 15.9551 11.5371 17.8477 11.5371C21.7852 11.5371 22.5176 14.1328 22.5176 17.5078V24.375Z" fill="white"/>
</g>
<defs>
<clipPath id="clip0_11_101">
<rect width="26.25" height="30" fill="white"/>
</clipPath>
</defs>
</svg>
