<svg width="178" height="36" viewBox="0 0 178 36" fill="none" xmlns="http://www.w3.org/2000/svg">
<path d="M0.152 2.56V1.216H5.576C9.192 1.216 11.064 1.264 11.192 1.36L11.432 1.6C11.496 1.664 13.096 5.968 16.232 14.512L20.984 27.28L25.736 14.512C28.872 5.936 30.488 1.632 30.584 1.6C30.616 1.536 30.68 1.456 30.776 1.36C30.904 1.264 32.776 1.216 36.392 1.216H41.816V2.56V3.904H40.472C38.232 3.904 37.048 4.016 36.92 4.24V30.976C37.048 31.2 38.232 31.312 40.472 31.312H41.816V32.656V34H41.288L37.544 33.904C35.4 33.872 33.256 33.872 31.112 33.904L27.368 34H26.84V32.656V31.312H28.184C30.424 31.312 31.608 31.2 31.736 30.976C31.768 30.944 31.784 26.48 31.784 17.584V4.336L26.36 18.928C22.744 28.688 20.92 33.584 20.888 33.616C20.472 33.84 20.056 33.952 19.64 33.952C18.968 33.952 18.568 33.856 18.44 33.664C18.312 33.536 16.52 28.736 13.064 19.264C9.512 9.76 7.736 4.96 7.736 4.864C7.704 4.832 7.688 4.896 7.688 5.056C7.656 5.504 7.64 9.568 7.64 17.248L7.688 29.776L7.784 30.016C8.232 30.784 9.528 31.216 11.672 31.312H12.584V32.656V34H12.152L9.032 33.904C7.272 33.872 5.496 33.872 3.704 33.904L0.584 34H0.152V32.656V31.312H1.064C3.208 31.216 4.504 30.784 4.952 30.016L5.096 29.776V17.056C5.096 8.544 5.08 4.272 5.048 4.24C4.92 4.016 3.736 3.904 1.496 3.904H0.152V2.56ZM52.4716 12.544C52.5996 12.48 53.0476 12.48 53.8156 12.544C55.0636 12.544 56.1676 12.704 57.1276 13.024C58.6316 13.536 59.8476 14.288 60.7756 15.28C61.6076 16.144 62.1516 17.104 62.4076 18.16C62.4716 18.416 62.5196 20.576 62.5516 24.64C62.5516 28.576 62.5836 30.672 62.6476 30.928C62.8716 31.536 63.2076 31.744 63.6556 31.552C63.7196 31.52 63.7996 31.456 63.8956 31.36C64.1196 31.136 64.2316 30.64 64.2316 29.872C64.2636 29.68 64.2796 29.344 64.2796 28.864V27.04H65.4796H66.6796V28.72C66.6796 29.936 66.6636 30.608 66.6316 30.736C66.4396 31.984 65.7036 32.96 64.4236 33.664C63.1756 34.272 62.0716 34.448 61.1116 34.192C60.1836 33.936 59.4796 33.344 58.9996 32.416C58.8716 32.224 58.7756 32.016 58.7116 31.792L58.6636 31.6L58.2316 32.032C57.6876 32.576 57.0156 33.04 56.2156 33.424C54.6796 34.224 53.0156 34.592 51.2236 34.528C49.0476 34.432 47.3196 33.696 46.0396 32.32C45.5596 31.84 45.1916 31.328 44.9356 30.784C44.3276 29.504 44.2316 28.224 44.6476 26.944C45.2236 25.216 46.5356 23.856 48.5836 22.864C50.0556 22.128 51.7516 21.616 53.6716 21.328C54.8876 21.104 56.1676 20.96 57.5116 20.896H58.0396V19.744C58.0076 18.944 57.9596 18.416 57.8956 18.16C57.7996 17.744 57.5916 17.28 57.2716 16.768C56.5036 15.648 55.5116 14.992 54.2956 14.8C53.5596 14.672 52.5036 14.704 51.1276 14.896C50.8716 14.96 50.7276 14.992 50.6956 14.992C50.6316 14.992 50.6796 15.072 50.8396 15.232C51.3516 15.904 51.5276 16.72 51.3676 17.68C51.1116 18.768 50.4236 19.456 49.3036 19.744C48.2796 20 47.3836 19.76 46.6156 19.024C46.0396 18.48 45.7676 17.744 45.7996 16.816C45.8316 16.336 45.9596 15.856 46.1836 15.376C46.5356 14.704 47.1756 14.096 48.1036 13.552C49.2236 13.008 50.6796 12.672 52.4716 12.544ZM58.0396 25.504V23.104H57.7516C57.1436 23.104 56.4716 23.184 55.7356 23.344C54.6476 23.536 53.5596 23.856 52.4716 24.304C50.7116 25.104 49.6716 26.272 49.3516 27.808C49.1916 28.8 49.3836 29.712 49.9276 30.544C50.8876 32.048 52.3276 32.576 54.2476 32.128C54.3436 32.096 54.4396 32.064 54.5356 32.032C55.9436 31.648 56.9516 30.832 57.5596 29.584C57.6236 29.424 57.6876 29.28 57.7516 29.152C57.9436 28.416 58.0396 27.2 58.0396 25.504ZM73.5436 4.816V4.48H74.7436H75.9436V8.896V13.312H79.0636H82.1836V14.656V16H79.0636H75.9436V22.384C75.9436 26.736 75.9596 29.008 75.9916 29.2C76.1836 30.864 76.7756 31.808 77.7676 32.032C78.9196 32.32 79.7516 31.76 80.2636 30.352C80.4556 29.808 80.5676 28.768 80.5996 27.232V25.312H81.7996H82.9996V27.232C82.9676 28.544 82.9196 29.328 82.8556 29.584C82.4076 31.664 81.3356 33.136 79.6396 34C78.6156 34.448 77.5596 34.608 76.4716 34.48C73.9756 34.192 72.4076 32.896 71.7676 30.592C71.5756 29.984 71.4796 28.864 71.4796 27.232C71.4796 27.616 71.4636 26.096 71.4316 22.672V16H69.6556H67.8796V14.896V13.744H68.2636C69.2556 13.648 70.1836 13.2 71.0476 12.4C71.7516 11.696 72.3436 10.704 72.8236 9.424C73.3036 7.92 73.5436 6.384 73.5436 4.816ZM90.6159 0.975999C93.3679 0.783999 94.6799 0.688 94.5519 0.688H94.7439V8.272V15.856L95.2719 15.328C96.1359 14.528 97.0639 13.92 98.0559 13.504C99.3359 12.992 100.648 12.752 101.992 12.784C103.304 12.816 104.408 13.072 105.304 13.552C105.72 13.776 106.04 13.968 106.264 14.128C107.32 14.992 107.944 16.352 108.136 18.208C108.168 18.432 108.184 20.64 108.184 24.832C108.184 28.896 108.2 30.944 108.232 30.976C108.36 31.2 109.256 31.312 110.92 31.312H111.928V32.656V34H111.544L108.52 33.904C106.76 33.872 105.032 33.872 103.336 33.904L100.408 34H99.9759V32.656V31.312H100.984C102.68 31.312 103.576 31.184 103.672 30.928V24.448C103.64 20.032 103.544 17.584 103.384 17.104C103.096 16.048 102.424 15.392 101.368 15.136C100.696 15.008 99.9759 15.024 99.2079 15.184C97.8959 15.472 96.8399 16.24 96.0399 17.488C95.5599 18.16 95.2239 18.96 95.0319 19.888C94.9679 20.176 94.9199 22.064 94.8879 25.552V30.928C94.9839 31.184 95.8959 31.312 97.6239 31.312H98.6319V32.656V34H98.2479L95.2239 33.904C93.4959 33.872 91.7679 33.872 90.0399 33.904L87.0159 34H86.6319V32.656V31.312H87.6399C89.3039 31.312 90.1999 31.2 90.3279 30.976V5.536C90.1999 4.768 89.7999 4.288 89.1279 4.096C88.7759 4 88.2319 3.936 87.4959 3.904H86.6319V2.56V1.216H86.7279L90.6159 0.975999ZM122.664 12.544C123.272 12.448 124.168 12.48 125.352 12.64C127.08 12.928 128.52 13.648 129.672 14.8C130.888 16.016 131.688 17.68 132.072 19.792C132.2 20.688 132.264 21.504 132.264 22.24C132.264 22.464 132.2 22.64 132.072 22.768L131.928 22.912H125.4H118.872V23.728C118.872 26.16 119.208 27.952 119.88 29.104C120.616 30.384 121.736 31.264 123.24 31.744C124.008 31.968 124.76 32.08 125.496 32.08C126.008 32.08 126.376 32.048 126.6 31.984C128.136 31.536 129.192 30.352 129.768 28.432C129.832 28.176 129.928 27.984 130.056 27.856L130.2 27.712H131.064H131.928L132.072 27.856C132.264 28.016 132.28 28.352 132.12 28.864C131.832 29.696 131.448 30.432 130.968 31.072C130.488 31.808 129.848 32.448 129.048 32.992C127.8 33.92 126.328 34.432 124.632 34.528C121.752 34.624 119.24 33.632 117.096 31.552C116.232 30.72 115.48 29.696 114.84 28.48C114.04 26.816 113.656 25.024 113.688 23.104C113.72 21.44 114.12 19.808 114.888 18.208C116.328 15.296 118.552 13.472 121.56 12.736C121.912 12.64 122.28 12.576 122.664 12.544ZM124.584 14.896C124.168 14.768 123.624 14.736 122.952 14.8C121.32 15.152 120.168 16.16 119.496 17.824C119.144 18.816 118.968 19.712 118.968 20.512V20.704H123.384H127.8V20.32C127.704 19.168 127.432 18.096 126.984 17.104C126.408 15.984 125.608 15.248 124.584 14.896ZM138.712 13.072L142.696 12.784H142.888V21.088C142.888 27.2 142.952 30.48 143.08 30.928C143.112 31.248 143.272 31.504 143.56 31.696C143.976 32.048 144.776 32.24 145.96 32.272C146.888 32.272 147.624 32.176 148.168 31.984C149.128 31.632 149.928 30.96 150.568 29.968C151.016 29.328 151.336 28.56 151.528 27.664C151.592 27.376 151.64 25.696 151.672 22.624C151.672 19.104 151.592 17.2 151.432 16.912C151.432 16.88 151.4 16.816 151.336 16.72C151.016 16.272 150.168 16.032 148.792 16H147.928V14.656V13.312L155.8 12.784H156.184V21.088C156.184 26.688 156.2 29.536 156.232 29.632C156.36 30.432 156.76 30.928 157.432 31.12C157.784 31.216 158.328 31.28 159.064 31.312H159.928V32.656V34C159.704 34 158.344 34.08 155.848 34.24C153.192 34.432 151.848 34.528 151.816 34.528V33.088V31.648L151.24 32.176C149.96 33.392 148.456 34.144 146.728 34.432C146.152 34.56 145.256 34.576 144.04 34.48C143.912 34.448 143.8 34.432 143.704 34.432C140.952 34.048 139.272 32.752 138.664 30.544C138.504 30 138.408 28.736 138.376 26.752V23.44C138.344 19.344 138.28 17.2 138.184 17.008C138.184 16.976 138.136 16.896 138.04 16.768C137.72 16.256 136.76 16 135.16 16H134.632V14.656V13.312H134.728L138.712 13.072ZM168.696 12.544C168.76 12.512 169.144 12.496 169.848 12.496C171.128 12.528 172.248 12.768 173.208 13.216L173.784 13.552L174.552 13.024L175.272 12.496H175.704C175.992 12.496 176.184 12.544 176.28 12.64L176.424 12.784V15.856V18.928L176.28 19.072L176.136 19.216H175.224H174.312L174.168 19.072C174.072 18.976 174.024 18.768 174.024 18.448C173.864 16.432 172.824 15.184 170.904 14.704C170.2 14.576 169.32 14.56 168.264 14.656C168.168 14.688 168.088 14.704 168.024 14.704C166.424 15.056 165.576 15.888 165.48 17.2C165.416 18.16 165.864 18.928 166.824 19.504C167.304 19.792 168.312 20.096 169.848 20.416C171.192 20.672 171.928 20.832 172.056 20.896C174.136 21.408 175.688 22.544 176.712 24.304C176.776 24.432 176.84 24.544 176.904 24.64C177.352 25.568 177.592 26.448 177.624 27.28C177.688 29.168 177.224 30.72 176.232 31.936C175.528 32.896 174.488 33.6 173.112 34.048C171.224 34.688 169.352 34.752 167.496 34.24C166.568 33.952 165.816 33.568 165.24 33.088L165 32.944L164.136 33.616C163.304 34.224 162.808 34.528 162.648 34.528C162.36 34.528 162.168 34.48 162.072 34.384L161.928 34.24V30.592C161.928 28 162.008 26.656 162.168 26.56C162.232 26.528 162.568 26.512 163.176 26.512C163.848 26.512 164.216 26.592 164.28 26.752C164.312 26.816 164.36 26.992 164.424 27.28C165.352 31.024 167.48 32.656 170.808 32.176C172.472 31.984 173.512 31.232 173.928 29.92C173.992 29.728 174.024 29.408 174.024 28.96C174.024 28.512 173.992 28.192 173.928 28C173.736 27.36 173.272 26.784 172.536 26.272C172.024 25.92 170.984 25.584 169.416 25.264C167.624 24.944 166.344 24.576 165.576 24.16C164.84 23.808 164.2 23.36 163.656 22.816C163.176 22.336 162.776 21.776 162.456 21.136C162.136 20.464 161.96 19.76 161.928 19.024C161.896 18.064 162.104 17.072 162.552 16.048C162.84 15.472 163.176 14.992 163.56 14.608C164.552 13.52 166.056 12.848 168.072 12.592C168.232 12.56 168.44 12.544 168.696 12.544Z" fill="white"/>
</svg>
